<?xml version="1.0" encoding="utf-8"?>
<!-- Generator: Adobe Illustrator 26.2.1, SVG Export Plug-In . SVG Version: 6.00 Build 0)  -->
<svg version="1.1" id="Layer_1" xmlns="http://www.w3.org/2000/svg" xmlns:xlink="http://www.w3.org/1999/xlink" x="0px" y="0px"
	 viewBox="0 0 172.62 131.19" style="enable-background:new 0 0 172.62 131.19;" xml:space="preserve">
<style type="text/css">
	.st0{fill:#FFFFFF;}
</style>
<circle class="st0" cx="13.5" cy="118.5" r="13.5"/>
<path class="st0" d="M141.48,0H21.2v6.41h17.62v106.03c0,5.6-1.49,15.27-6.6,18.52c-0.3,0.2-0.64,0.33-1,0.39
	c-0.48,0.08-1,0.16-1.48,0.22c0,0.14,0,0.29,0,0.43h0.68c18.22-1,28.68-12.47,33.46-19.55c1.25-1.91,2.28-3.96,3.08-6.1
	c3.74-9.55,3.93-21.73,3.93-33.16V6.42h18.92v124.77h32.05V6.42h19.62V0z"/>
<path class="st0" d="M166.62,86.73c-2.41,7-6.41,26.43-17.43,36.85c-4.81,4.68-8.85,6.49-15.1,7.18v0.43h36.53l2-44.46L166.62,86.73
	z"/>
</svg>
