<?xml version="1.0" encoding="utf-8"?>
<!-- Generator: Adobe Illustrator 26.3.1, SVG Export Plug-In . SVG Version: 6.00 Build 0)  -->
<svg version="1.1" id="Layer_1" xmlns="http://www.w3.org/2000/svg" xmlns:xlink="http://www.w3.org/1999/xlink" x="0px" y="0px"
	 viewBox="0 0 514 512" style="enable-background:new 0 0 514 512;" xml:space="preserve">
<style type="text/css">
	.st0{fill:#FFFFFF;}
</style>
<path d="M412.5,512h-312c-55.2,0-100-44.8-100-100V100c0-55.2,44.8-100,100-100l312,0c55.2,0,100,44.8,100,100v312
	C512.5,467.3,467.7,512,412.5,512z"/>
<g>
	<circle class="st0" cx="97.7" cy="365.6" r="29.5"/>
	<path class="st0" d="M376.8,107H114.4v14h38.5v231.4c0,12.2-3.3,33.3-14.4,40.4c-0.7,0.4-1.4,0.7-2.2,0.9c-1.1,0.2-2.2,0.4-3.3,0.5
		c0,0.3,0,0.6,0,0.9h1.5c39.8-2.2,62.5-27.2,73-42.6c2.8-4.2,4.9-8.6,6.7-13.4c8.1-20.9,8.6-47.4,8.6-72.3V121h41.3v272.2h70V121
		h42.8L376.8,107L376.8,107z"/>
	<path class="st0" d="M431.7,296.2c-5.2,15.2-14,57.7-38,80.4c-10.5,10.2-19.3,14.2-33,15.6v0.9h79.7l4.4-97L431.7,296.2z"/>
</g>
</svg>
