<svg width="1502" height="272" viewBox="0 0 1502 272" fill="none" xmlns="http://www.w3.org/2000/svg">
<path fill-rule="evenodd" clip-rule="evenodd" d="M195.824 229.623H30.2907V36.652H0V253.267H195.824V229.623ZM162.562 113.276L203.34 36.652H170.523L140.104 113.276H162.562ZM365.196 244.658C304.399 244.658 254.31 195.815 254.31 136.974C254.31 78.1962 302.047 27.0178 367.54 27.0178C431.441 27.0178 478.393 78.1872 478.393 136.974C478.4 195.815 425.968 244.658 365.196 244.658ZM366.235 0C278.382 0 218.497 61.9231 218.497 136.909C218.497 215.836 284.656 271.526 366.235 271.526C447.808 271.526 513.927 216.63 513.927 136.909C513.927 61.9231 453.296 0 366.235 0ZM685.592 136.8H584.448V62.3043H689.136C713.223 62.3043 726.784 73.5502 731.67 87.8289C734.896 97.6372 732.821 110.495 727.499 119.239C718.744 133.734 702.126 136.8 685.592 136.8ZM711.539 162.713C761.158 149.465 765.997 112.512 765.759 99.3375C762.786 60.637 736.721 36.652 689.836 36.652H553.307V253.267H584.439V162.419H673.312L738.7 253.267H777.93C777.945 253.267 730.908 192.122 711.539 162.713ZM1105.1 170.092L1157 66.6096L1209.54 170.092H1105.1ZM1135.89 36.652L1025.74 253.267H1062.97L1091.16 197.204H1223.27L1251.7 253.267H1288.54L1178.3 36.652H1135.89ZM1501.1 229.623H1335.57V36.652H1305.27V253.267H1501.1V229.623ZM973.413 1.67623H917.319L891.078 31.1251L973.413 1.67623ZM970.409 153.913V129.961H849.88V60.2469H1010.36V36.652H816.641V253.267H1010.36V229.623H849.88V153.913H970.409Z" fill="white"/>
</svg>
